<svg width="34" height="34" viewBox="0 0 34 34" fill="none" xmlns="http://www.w3.org/2000/svg">
<path fill-rule="evenodd" clip-rule="evenodd" d="M33.4882 16.7995C33.4882 25.8151 26.0737 33.1237 16.9274 33.1237C7.7812 33.1237 0.366699 25.8151 0.366699 16.7995C0.366699 7.78392 7.7812 0.475342 16.9274 0.475342C26.0737 0.475342 33.4882 7.78392 33.4882 16.7995ZM32.1633 16.7995C32.1633 25.0938 25.342 31.8177 16.9274 31.8177C8.5129 31.8177 1.69156 25.0938 1.69156 16.7995C1.69156 8.50517 8.5129 1.78128 16.9274 1.78128C25.342 1.78128 32.1633 8.50517 32.1633 16.7995ZM14.2777 13.5347V14.1876H15.6026V24.6351H14.2777V25.2881L15.6026 25.2881H18.2523L19.5772 25.2881V24.6351H18.2523V13.5347H15.6026H14.2777ZM18.9147 10.2698C18.9147 11.3517 18.025 12.2287 16.9274 12.2287C15.8299 12.2287 14.9402 11.3517 14.9402 10.2698C14.9402 9.18797 15.8299 8.31094 16.9274 8.31094C18.025 8.31094 18.9147 9.18797 18.9147 10.2698Z" fill="#2B4074"/>
</svg>
