<svg width="34" height="33" viewBox="0 0 34 33" fill="none" xmlns="http://www.w3.org/2000/svg">
<path fill-rule="evenodd" clip-rule="evenodd" d="M22.5308 3.97974C27.0785 8.52753 27.4181 15.7085 23.5837 20.7612L33.4648 30.6422L31.1227 32.9843L21.2666 23.1281C16.2041 27.1441 8.87773 26.8626 4.26283 22.2477C-0.709658 17.2752 -0.651237 9.15478 4.39331 4.11023C9.43787 -0.934323 17.5583 -0.992744 22.5308 3.97974ZM21.594 4.91656C26.0564 9.37905 26.004 16.6666 21.4768 21.1938C16.9497 25.7209 9.66214 25.7734 5.19965 21.3109C0.737158 16.8484 0.789587 9.56082 5.31675 5.03366C9.84391 0.5065 17.1315 0.454072 21.594 4.91656Z" fill="#2B4074"/>
</svg>
